<?xml version="1.0" encoding="utf-8"?>
<!-- Generator: Adobe Illustrator 22.1.0, SVG Export Plug-In . SVG Version: 6.00 Build 0)  -->
<svg version="1.1" id="Layer_1" xmlns="http://www.w3.org/2000/svg" xmlns:xlink="http://www.w3.org/1999/xlink" x="0px" y="0px"
	 viewBox="0 0 512 512" style="enable-background:new 0 0 512 512;" xml:space="preserve">
<style type="text/css">
	.st0{fill:#273542;}
</style>
<g>
	<g>
		<polygon class="st0" points="435.2,359.3 435.2,397.4 365.9,397.4 365.9,410.8 448.4,410.8 448.4,359.3 		"/>
	</g>
</g>
<g>
	<g>
		<rect x="338.3" y="397.4" class="st0" width="15" height="13.5"/>
	</g>
</g>
<g>
	<g>
		<rect x="63.6" y="349.6" class="st0" width="13.2" height="54.7"/>
	</g>
</g>
<g>
	<g>
		<rect x="63.6" y="322.6" class="st0" width="13.2" height="12.4"/>
	</g>
</g>
<g>
	<g>
		<path class="st0" d="M352,149.3c-2.1-50.7-43-91.3-93-91.3h-5.9c-50,0-91,40.6-93,91.3H41v72.4v11.5V434h430V233.2v-11.5v-72.4
			H352z M253.1,71.5h5.9c42.8,0,77.8,34.6,79.9,77.9h-21.7c-2.5-31.3-28.2-55.9-59.3-55.9h-3.6c-31.2,0-56.8,24.6-59.3,55.9h-21.7
			C175.3,106,210.3,71.5,253.1,71.5z M303.9,149.3h-95.8c2.5-23.8,22.2-42.4,46.1-42.4h3.6C281.7,106.9,301.4,125.5,303.9,149.3z
			 M54.2,162.8h105.8h34.7h122.7h34.7h105.8v70.4c0,36-28.6,65.3-63.8,65.3H293.2v-60.7h-74.5v60.7H117.9
			c-35.2,0-63.8-29.3-63.8-65.3C54.2,233.2,54.2,162.8,54.2,162.8z M280.1,251.3v107.9h-48.2V251.3H280.1z M457.8,420.5L457.8,420.5
			H54.2V277.2c13.8,21,37.3,34.8,63.8,34.8h100.8v60.7h74.5V312h100.8c26.5,0,49.9-13.8,63.8-34.8V420.5z"/>
	</g>
</g>
<g>
	<g>
		<path class="st0" d="M80.8,249.6l-11.9,5.7c8.3,18.2,25.4,30.9,44.8,33.1l1.5-13.4C100.3,273.3,87.1,263.6,80.8,249.6z"/>
	</g>
</g>
<g>
	<g>
		<rect x="344.9" y="172.5" class="st0" width="19.1" height="13.5"/>
	</g>
</g>
<g>
	<g>
		<polygon class="st0" points="387.8,172.5 387.8,186 435.2,186 435.2,211.3 448.4,211.3 448.4,172.5 		"/>
	</g>
</g>
<g>
	<g>
		<path class="st0" d="M256,312.7c-11.2,0-20.3,9.3-20.3,20.8s9.1,20.8,20.3,20.8c11.2,0,20.3-9.3,20.3-20.8S267.2,312.7,256,312.7z
			 M256,340.7c-3.9,0-7.1-3.3-7.1-7.3c0-4,3.2-7.3,7.1-7.3c3.9,0,7.1,3.3,7.1,7.3C263.1,337.4,259.9,340.7,256,340.7z"/>
	</g>
</g>
</svg>
