<?xml version="1.0" encoding="iso-8859-1"?>
<!-- Generator: Adobe Illustrator 19.0.0, SVG Export Plug-In . SVG Version: 6.00 Build 0)  -->
<svg xmlns="http://www.w3.org/2000/svg" xmlns:xlink="http://www.w3.org/1999/xlink" version="1.1" id="Layer_1" x="0px" y="0px" viewBox="0 0 512 512" style="enable-background:new 0 0 512 512;" xml:space="preserve" width="512px" height="512px">
<g>
	<g>
		<circle cx="202.271" cy="37.878" r="10.449" fill="#FFFFFF"/>
	</g>
</g>
<g>
	<g>
		<circle cx="170.924" cy="37.878" r="7.837" fill="#FFFFFF"/>
	</g>
</g>
<g>
	<g>
		<path d="M278.645,30.041h-45.29c-4.328,0-7.837,3.509-7.837,7.837s3.509,7.837,7.837,7.837h45.29c4.328,0,7.837-3.509,7.837-7.837    S282.973,30.041,278.645,30.041z" fill="#FFFFFF"/>
	</g>
</g>
<g>
	<g>
		<path d="M381.388,0H130.612c-15.845,0-28.735,12.891-28.735,28.735v454.531c0,15.844,12.89,28.735,28.735,28.735h250.776    c15.845,0,28.735-12.891,28.735-28.735V28.735C410.122,12.891,397.233,0,381.388,0z M394.449,483.265    c0,7.202-5.859,13.061-13.061,13.061H130.612c-7.202,0-13.061-5.859-13.061-13.061v-31.347h276.898V483.265z M394.449,436.245    H117.551V75.755h276.898V436.245z M394.449,60.082H117.551V28.735c0-7.202,5.859-13.061,13.061-13.061h250.776    c7.203,0,13.061,5.859,13.061,13.061V60.082z" fill="#FFFFFF"/>
	</g>
</g>
<g>
	<g>
		<path d="M284.735,461.061h-57.469c-7.214,0-13.061,5.847-13.061,13.061c0,7.213,5.847,13.061,13.061,13.061h57.469    c7.214,0,13.061-5.848,13.061-13.061C297.796,466.908,291.949,461.061,284.735,461.061z" fill="#FFFFFF"/>
	</g>
</g>
<g>
</g>
<g>
</g>
<g>
</g>
<g>
</g>
<g>
</g>
<g>
</g>
<g>
</g>
<g>
</g>
<g>
</g>
<g>
</g>
<g>
</g>
<g>
</g>
<g>
</g>
<g>
</g>
<g>
</g>
</svg>
