<?xml version="1.0" encoding="iso-8859-1"?>
<!-- Generator: Adobe Illustrator 19.0.0, SVG Export Plug-In . SVG Version: 6.00 Build 0)  -->
<svg xmlns="http://www.w3.org/2000/svg" xmlns:xlink="http://www.w3.org/1999/xlink" version="1.1" id="Layer_1" x="0px" y="0px" viewBox="0 0 512.001 512.001" style="enable-background:new 0 0 512.001 512.001;" xml:space="preserve" width="512px" height="512px">
<g>
	<g>
		<polygon points="116.878,76.865 116.878,64.505 101.67,64.505 101.67,76.865 89.309,76.865 89.309,92.073 101.67,92.073     101.67,104.434 116.878,104.434 116.878,92.073 129.238,92.073 129.238,76.865   " fill="#273542"/>
	</g>
</g>
<g>
	<g>
		<polygon points="401.835,137.745 401.835,125.385 386.627,125.385 386.627,137.745 374.266,137.745 374.266,152.953     386.627,152.953 386.627,165.314 401.835,165.314 401.835,152.953 414.194,152.953 414.194,137.745   " fill="#273542"/>
	</g>
</g>
<g>
	<g>
		<polygon points="167.038,376.863 167.038,368.072 151.83,368.072 151.83,376.863 143.039,376.863 143.039,392.071 151.83,392.071     151.83,400.862 167.038,400.862 167.038,392.071 175.829,392.071 175.829,376.863   " fill="#273542"/>
	</g>
</g>
<g>
	<g>
		<path d="M448.247,180.986H281.744h-49.767H64.505h-0.753C28.599,180.986,0,209.585,0,244.739v0.752    c0,35.154,28.599,63.753,63.752,63.753h0.753h146.482v138.252l31.868-17.897l31.868,17.897v-44.154l26.292,13.625V309.243h147.234    c35.154,0,63.753-28.599,63.753-63.753v-0.752C512,209.585,483.401,180.986,448.247,180.986z M15.208,245.491v-0.752    c0-26.767,21.777-48.545,48.544-48.545h0.753c26.767,0,48.545,21.777,48.545,48.545v0.752c0,2.167-0.157,4.297-0.434,6.389H33.511    l2.435,9.493c3.518,13.714,10.202,24.345,20.218,32.065C32.989,289.784,15.208,269.678,15.208,245.491z M83.488,290.043    c-14.582-4.147-24.005-11.428-29.448-22.956h53.895c-0.327,0.673-0.686,1.364-1.063,2.058c-0.279,0.499-0.558,0.998-0.855,1.485    c-0.003,0.005-0.006,0.01-0.009,0.015c-1.366,2.245-2.917,4.362-4.616,6.349C95.301,283.731,87.297,288.171,83.488,290.043z     M210.986,294.036H105.763c2.353-2.003,4.558-4.174,6.599-6.494c0.439-0.477,0.874-0.96,1.3-1.457    c2.624-3.061,4.764-6.371,6.499-9.552c2.25-4.018,4.077-8.3,5.421-12.792c0.208-0.668,0.371-1.228,0.488-1.65    c0.023-0.086,0.034-0.173,0.056-0.261c1.385-5.217,2.132-10.692,2.132-16.34v-0.752c0-19.428-8.746-36.842-22.495-48.545h126.213    c17.363,0,32.033,22.231,32.033,48.545v0.752c0,26.314-14.67,48.545-32.033,48.545H210.986z M259.515,395.461v26.052h-0.001    l-16.66-9.357l-16.66,9.357v-112.27h5.782h27.539V395.461z M274.721,386.214v-76.97h7.022h4.063v82.715L274.721,386.214z     M305.675,245.491c0,28.608-12.611,48.545-23.931,48.545h-7.022h-11.984c1.206-1.396,2.366-2.882,3.479-4.457    c8.385-11.876,13.001-27.533,13.001-44.088v-0.752c0-16.554-4.617-32.211-13.001-44.088c-1.112-1.575-2.272-3.061-3.479-4.457    h19.006c11.319,0,23.931,19.937,23.931,48.545V245.491z M496.793,245.491L496.793,245.491    c-0.001,26.767-21.778,48.545-48.546,48.545H307.363c8.32-11.606,13.52-28.898,13.52-48.545v-0.752    c0-19.647-5.199-36.939-13.52-48.545h140.885c26.767,0,48.545,21.777,48.545,48.545V245.491z" fill="#273542"/>
	</g>
</g>
<g>
	<g>
		<path d="M467.689,207.518l-7.996,12.937c8.618,5.327,13.762,14.546,13.762,24.66c0,8.105-3.262,15.619-9.185,21.158l10.388,11.107    c8.9-8.324,14.004-20.085,14.004-32.265C488.663,229.691,480.823,215.637,467.689,207.518z" fill="#273542"/>
	</g>
</g>
<g>
</g>
<g>
</g>
<g>
</g>
<g>
</g>
<g>
</g>
<g>
</g>
<g>
</g>
<g>
</g>
<g>
</g>
<g>
</g>
<g>
</g>
<g>
</g>
<g>
</g>
<g>
</g>
<g>
</g>
</svg>
