<?xml version="1.0" encoding="iso-8859-1"?>
<!-- Generator: Adobe Illustrator 19.0.0, SVG Export Plug-In . SVG Version: 6.00 Build 0)  -->
<svg xmlns="http://www.w3.org/2000/svg" xmlns:xlink="http://www.w3.org/1999/xlink" version="1.1" id="Layer_1" x="0px" y="0px" viewBox="0 0 512 512" style="enable-background:new 0 0 512 512;" xml:space="preserve" width="512px" height="512px">
<g>
	<g>
		<path d="M437.024,74.976C388.676,26.627,324.386,0,256,0S123.324,26.627,74.976,74.976S0,187.614,0,256    s26.627,132.676,74.976,181.024S187.614,512,256,512s132.676-26.627,181.024-74.976C485.373,388.676,512,324.386,512,256    S485.373,123.324,437.024,74.976z M425.828,425.828C380.47,471.185,320.157,496.165,256,496.165s-124.47-24.98-169.828-70.337    C40.814,380.471,15.835,320.157,15.835,256s24.98-124.47,70.337-169.828S191.843,15.835,256,15.835s124.47,24.98,169.828,70.337    c45.358,45.357,70.337,105.67,70.337,169.828S471.185,380.47,425.828,425.828z" fill="#273542"/>
	</g>
</g>
<g>
	<g>
		<path d="M256,42.227C138.125,42.227,42.227,138.125,42.227,256S138.125,469.773,256,469.773S469.773,373.875,469.773,256    S373.875,42.227,256,42.227z M377.723,350.689l-11.196,11.196l31.664,31.664c-34.297,35.443-81.678,58.136-134.273,60.217v-44.694    h-15.835v44.694c-52.595-2.08-99.976-24.773-134.272-60.214l31.664-31.664l-11.196-11.196l-31.042,31.042    c-26.642-32.312-43.237-73.191-45.002-117.816h44.694v-15.835H58.234c1.765-44.625,18.36-85.504,45.001-117.815l31.042,31.042    l11.196-11.196l-31.664-31.664c34.297-35.442,81.678-58.135,134.273-60.215v44.694h15.835V58.234    c52.595,2.08,99.976,24.773,134.272,60.214l-31.664,31.664l11.196,11.196l31.042-31.042    c26.641,32.312,43.237,73.19,45.001,117.815h-44.693v15.835h44.694c-1.765,44.625-18.36,85.504-45.001,117.815L377.723,350.689z" fill="#273542"/>
	</g>
</g>
<g>
	<g>
		<polygon points="263.918,252.721 263.918,134.598 248.082,134.598 248.082,259.279 326.938,338.134 338.134,326.938   " fill="#273542"/>
	</g>
</g>
<g>
</g>
<g>
</g>
<g>
</g>
<g>
</g>
<g>
</g>
<g>
</g>
<g>
</g>
<g>
</g>
<g>
</g>
<g>
</g>
<g>
</g>
<g>
</g>
<g>
</g>
<g>
</g>
<g>
</g>
</svg>
