<?xml version="1.0" encoding="iso-8859-1"?>
<!-- Generator: Adobe Illustrator 19.0.0, SVG Export Plug-In . SVG Version: 6.00 Build 0)  -->
<svg xmlns="http://www.w3.org/2000/svg" xmlns:xlink="http://www.w3.org/1999/xlink" version="1.1" id="Capa_1" x="0px" y="0px" viewBox="0 0 512 512" style="enable-background:new 0 0 512 512;" xml:space="preserve" width="512px" height="512px">
<g>
	<g>
		<path d="M456.238,216.253V0H55.762v216.253L0,257.221V512h512V257.221L456.238,216.253z M55.762,235.123v22.905H70.97V15.208    H441.03v242.82h15.208v-22.905l32.715,24.037l-181.965,74.271L256,291.808l-50.988,41.623L23.047,259.159L55.762,235.123z     M15.208,272.386l176.39,71.996L15.208,488.373V272.386z M28.943,496.792L256,311.44l227.057,185.352H28.943z M496.792,488.373    l-176.39-143.991l176.39-71.996V488.373z" fill="#FFFFFF"/>
	</g>
</g>
<g>
	<g>
		<path d="M320.485,84.547c-18.875-17.896-43.596-27.003-69.576-25.607c-23.008,1.225-44.731,10.952-61.166,27.388    c-16.437,16.436-26.164,38.159-27.388,61.166c-1.384,25.992,7.709,50.701,25.607,69.576    c17.914,18.892,42.078,29.298,68.039,29.298V231.16c-21.745,0-41.99-8.72-57.004-24.555    c-14.996-15.816-22.616-36.521-21.456-58.304c2.103-39.491,34.685-72.073,74.176-74.176c21.772-1.172,42.487,6.459,58.304,21.456    c15.834,15.014,24.555,35.259,24.555,57.004v16.222c0,9.783-7.96,17.743-17.743,17.743c-9.783,0-17.743-7.96-17.743-17.743    v-16.222c0-23.76-19.329-43.089-43.089-43.089s-43.089,19.329-43.089,43.089c0,23.76,19.329,43.089,43.089,43.089    c12.114,0,23.067-5.032,30.904-13.106c5.223,11.315,16.67,19.189,29.928,19.189c18.169,0,32.951-14.781,32.951-32.951v-16.222    C349.782,126.625,339.377,102.461,320.485,84.547z M256,180.467c-15.373,0-27.881-12.508-27.881-27.881    s12.508-27.881,27.881-27.881s27.881,12.508,27.881,27.881S271.373,180.467,256,180.467z" fill="#FFFFFF"/>
	</g>
</g>
<g>
	<g>
		<rect x="271.208" y="231.16" width="15.208" height="15.208" fill="#FFFFFF"/>
	</g>
</g>
<g>
	<g>
		<rect x="301.624" y="231.16" width="15.208" height="15.208" fill="#FFFFFF"/>
	</g>
</g>
<g>
	<g>
		<rect x="332.04" y="231.16" width="15.208" height="15.208" fill="#FFFFFF"/>
	</g>
</g>
<g>
</g>
<g>
</g>
<g>
</g>
<g>
</g>
<g>
</g>
<g>
</g>
<g>
</g>
<g>
</g>
<g>
</g>
<g>
</g>
<g>
</g>
<g>
</g>
<g>
</g>
<g>
</g>
<g>
</g>
</svg>
