<svg id="Capa_1" data-name="Capa 1" xmlns="http://www.w3.org/2000/svg" viewBox="0 0 512 499.36"><defs><style>.cls-1{fill:#fff;}</style></defs><title>github</title><path class="cls-1" d="M512,256a256.45,256.45,0,0,1-1.58,28.54c-.11,1-.23,2.1-.35,3.14q-1,8-2.46,15.78c-.19,1-.39,2.06-.6,3.07A256.32,256.32,0,0,1,337.07,498.89c-13,2.5-17.58-5.47-17.58-12.29,0-8.43.29-36,.29-70.25,0-23.89-8.18-39.47-17.36-47.41,44.34-4.93,90.43-19.12,108.72-71.47.36-1,.71-2.07,1-3.12q1.53-4.78,2.75-10c.24-1,.48-2.08.7-3.15a187.07,187.07,0,0,0,3.69-38.6c0-27.94-9.94-50.78-26.35-68.71,2.66-6.45,11.43-32.48-2.51-67.75,0,0-21.46-6.87-70.33,26.25a242.68,242.68,0,0,0-128.21,0C143,99.29,121.5,106.16,121.5,106.16c-13.9,35.27-5.13,61.3-2.48,67.75-16.37,17.93-26.38,40.77-26.38,68.71a186.38,186.38,0,0,0,3.7,38.59c.22,1.07.45,2.11.69,3.15q1.22,5.2,2.76,10c.33,1,.69,2.1,1,3.12,18.28,52.26,64.24,66.64,108.45,71.67-7.32,6.4-14,17.69-16.26,34.24-14.6,6.54-51.66,17.85-74.49-21.28,0,0-13.54-24.58-39.24-26.39,0,0-25-.32-1.75,15.56,0,0,16.77,7.88,28.42,37.46,0,0,15,45.69,86.25,30.21.11,21.39.34,41.55.34,47.66,0,6.76-4.69,14.69-17.49,12.32A256.38,256.38,0,0,1,5,306.53H5c-.2-1-.4-2-.58-3.06q-1.47-7.81-2.46-15.78c-.13-1-.25-2.09-.36-3.14A256.45,256.45,0,0,1,0,256C0,114.61,114.64,0,256,0S512,114.61,512,256Z"/><path class="cls-1" d="M94.68,363.7c-1.85-.88-3.86-.51-4.41.79s.44,3,2.3,3.85,3.82.5,4.39-.78S96.54,364.53,94.68,363.7Z"/><path class="cls-1" d="M106.6,373.8c-1.68-1.77-4-2.31-5.25-1.18s-.93,3.54.75,5.32,4,2.32,5.23,1.19S108.27,375.61,106.6,373.8Z"/><path class="cls-1" d="M117.46,387.71c-1.61-2.26-4.14-3.24-5.72-2.15s-1.61,3.82,0,6.1,4.15,3.3,5.72,2.2S119,390,117.46,387.71Z"/><path class="cls-1" d="M129.85,401.58c-2.21-2.1-5.21-2.53-6.64-1s-.78,4.49,1.46,6.54,5.18,2.53,6.58,1S132.07,403.63,129.85,401.58Z"/><path class="cls-1" d="M146.14,411.14c-2.93-.91-5.82,0-6.42,2.05s1.31,4.38,4.2,5.26,5.78-.06,6.41-2.07S149,412,146.14,411.14Z"/><path class="cls-1" d="M165.74,414.19c-3.06.05-5.46,1.77-5.46,3.91s2.51,3.79,5.57,3.72,5.5-1.79,5.43-3.9S168.78,414.12,165.74,414.19Z"/><path class="cls-1" d="M190.78,414.61c-.39-2.1-3.11-3.34-6.13-2.82s-5.13,2.67-4.75,4.78,3.12,3.31,6.1,2.77S191.13,416.66,190.78,414.61Z"/></svg>