<?xml version="1.0" encoding="iso-8859-1"?>
<!-- Generator: Adobe Illustrator 19.0.0, SVG Export Plug-In . SVG Version: 6.00 Build 0)  -->
<svg xmlns="http://www.w3.org/2000/svg" xmlns:xlink="http://www.w3.org/1999/xlink" version="1.1" id="Layer_1" x="0px" y="0px" viewBox="0 0 512 512" style="enable-background:new 0 0 512 512;" xml:space="preserve" width="512px" height="512px">
<g>
	<g>
		<g>
			<path d="M498.939,130.612C498.939,58.593,440.346,0,368.327,0c-32.038,0-62.613,11.691-86.688,33.038     c-9.952-1.134-19.24-1.691-28.251-1.691c-16.655,0-33.24,1.731-49.229,5.133c-45.726,9.412-87.478,31.962-120.747,65.214     C54.5,130.61,33.38,166.584,22.361,205.635c-6.17,21.157-9.3,43.376-9.3,66.039s3.13,44.882,9.275,65.949     c11.042,39.143,32.162,75.112,61.075,104.021c33.245,33.25,74.997,55.807,120.686,65.221c16.07,3.408,32.654,5.136,49.29,5.136     c53.334,0,103.836-17.1,146.045-49.45c40.864-31.321,71.054-75.682,84.987-124.841c6.168-21.161,9.295-43.38,9.295-66.035     c0-26.72-4.385-53.017-13.023-78.238C492.954,165.373,498.939,144.782,498.939,130.612z M80.98,407.449     c-14.829-18.845-26.506-40.025-34.45-62.632h34.45V407.449z M80.98,323.918H40.284c-4.196-16.851-6.325-34.385-6.325-52.245     c0-17.839,2.124-35.354,6.327-52.245H80.98V323.918z M80.98,198.531H46.527c7.933-22.586,19.613-43.776,34.452-62.636V198.531z      M195.918,483.452c-35.21-9.442-67.426-27.577-94.041-52.991v-85.645h94.041V483.452z M195.918,323.918h-94.041v-104.49h94.041     V323.918z M195.918,198.531h-94.041v-85.652c26.618-25.404,58.819-43.527,94.041-52.972V198.531z M216.816,55.348     c11.995-2.049,24.256-3.103,36.571-3.103c3.382,0,6.817,0.091,10.324,0.265c-16.878,22.469-25.997,49.547-25.997,78.102     c0,14.973,6.75,37.283,20.572,67.918h-41.47V55.348z M216.816,219.429h51.356c14.529,29.478,34.086,64.537,58.275,104.49H216.816     V219.429z M386.72,445.964c-38.53,29.529-84.635,45.139-133.332,45.139c-12.293,0-24.545-1.051-36.571-3.099V344.816h122.475     c12.021,19.167,20.197,31.698,20.286,31.835c1.925,2.948,5.204,4.728,8.725,4.737c0.008,0,0.017,0,0.024,0     c3.511,0,6.789-1.764,8.722-4.695c0.091-0.138,8.357-12.683,20.336-31.877h62.85C446.184,384.574,420.434,420.124,386.72,445.964     z M466.494,323.918h-56.28c23.565-38.898,42.64-72.964,56.978-101.748c3.73,16.191,5.625,32.755,5.625,49.503     C472.816,289.511,470.693,307.03,466.494,323.918z M459.932,188.732c-15.948,35.635-41.678,82.368-76.458,138.879     c-5.91,9.545-11.104,17.758-15.126,24.05c-4.016-6.293-9.212-14.499-15.153-24.024c-29.744-48.34-53.02-89.856-69.181-123.398     c-20.994-43.566-25.401-64.086-25.401-73.627c0-30.013,12.001-58.103,33.762-79.071c20.668-19.761,47.642-30.644,75.953-30.644     c60.496,0,109.714,49.218,109.714,109.714C478.041,138.62,474.899,155.205,459.932,188.732z" fill="#FFFFFF"/>
			<rect x="357.878" y="402.286" width="20.898" height="20.898" fill="#FFFFFF"/>
			<rect x="389.224" y="376.163" width="20.898" height="20.898" fill="#FFFFFF"/>
			<rect x="326.531" y="376.163" width="20.898" height="20.898" fill="#FFFFFF"/>
			<path d="M342.204,52.245c-34.569,0-62.694,28.124-62.694,62.694h20.898c0-23.046,18.75-41.796,41.796-41.796V52.245z" fill="#FFFFFF"/>
			<path d="M368.327,99.265c-25.927,0-47.02,21.093-47.02,47.02c0,25.928,21.093,47.02,47.02,47.02     c25.927,0,47.02-21.092,47.02-47.02S394.254,99.265,368.327,99.265z M368.327,172.408c-14.404,0-26.122-11.719-26.122-26.122     s11.719-26.122,26.122-26.122s26.122,11.719,26.122,26.122S382.73,172.408,368.327,172.408z" fill="#FFFFFF"/>
		</g>
	</g>
</g>
<g>
</g>
<g>
</g>
<g>
</g>
<g>
</g>
<g>
</g>
<g>
</g>
<g>
</g>
<g>
</g>
<g>
</g>
<g>
</g>
<g>
</g>
<g>
</g>
<g>
</g>
<g>
</g>
<g>
</g>
</svg>
