<?xml version="1.0" encoding="utf-8"?>
<!-- Generator: Adobe Illustrator 22.1.0, SVG Export Plug-In . SVG Version: 6.00 Build 0)  -->
<svg version="1.1" id="Capa_1" xmlns="http://www.w3.org/2000/svg" xmlns:xlink="http://www.w3.org/1999/xlink" x="0px" y="0px"
	 viewBox="0 0 512 512" style="enable-background:new 0 0 512 512;" xml:space="preserve">
<style type="text/css">
	.st0{fill:#273542;}
</style>
<g>
	<g>
		<g>
			<path class="st0" d="M321.4,68.4l-7.1,13.2l165.9,88.8L341.1,245l-29.6-29.6L300.9,226l26.4,26.4L256,290.5L31.8,170.5L256,50.4
				l45.1,24.2l7.1-13.2l-52.2-28L0,170.5l92.8,49.7v110l47.4,47.4h77.5l38.4,38.4l38.4-38.4h37.9v18.4H328l-15.6,15.6v79.1h15v-22.7
				h4.8v22.7h15v-22.7h4.8v22.7h15v-79.1l-15.6-15.6h-4.2v-18.4h18v-15h-18V258.7l57-30.5V324l-32.6,32.6l10.6,10.6l37-37v-110
				l92.8-49.7L321.4,68.4z M248.5,387.2l-24.6-24.6h-73.1v0V281h-15v70.9l-28-28v-95.8l140.7,75.3L248.5,387.2L248.5,387.2z
				 M288.1,362.5l-24.6,24.6v-83.6l68.7-36.8v95.8H288.1z M352,417.7v35.2h-24.6v-35.2l6.8-6.8h11L352,417.7z"/>
			
				<rect x="130.8" y="191.6" transform="matrix(0.4721 -0.8816 0.8816 0.4721 -102.5237 227.0064)" class="st0" width="15" height="15"/>
			
				<rect x="108.8" y="179.8" transform="matrix(0.4721 -0.8815 0.8815 0.4721 -103.7305 201.3754)" class="st0" width="15" height="15"/>
			
				<rect x="174.8" y="215.2" transform="matrix(0.4721 -0.8816 0.8816 0.4721 -100.0656 278.3191)" class="st0" width="15" height="15"/>
			
				<rect x="152.8" y="203.4" transform="matrix(0.4721 -0.8815 0.8815 0.4721 -101.2709 252.6788)" class="st0" width="15" height="15"/>
			
				<rect x="354.5" y="68.2" transform="matrix(0.4721 -0.8816 0.8816 0.4721 70.7948 391.1183)" class="st0" width="15" height="136.5"/>
			
				<rect x="278.8" y="88.5" transform="matrix(0.4721 -0.8816 0.8816 0.4721 66.575 303.0901)" class="st0" width="15" height="15"/>
			
				<rect x="256.8" y="76.7" transform="matrix(0.4721 -0.8816 0.8816 0.4721 65.3508 277.428)" class="st0" width="15" height="15"/>
			
				<rect x="286.3" y="200.8" transform="matrix(0.7071 -0.7071 0.7071 0.7071 -61.2146 268.7516)" class="st0" width="15" height="15"/>
			<path class="st0" d="M225.3,170.5c0,14.8,13.8,26.8,30.7,26.8c4.8,0,9.4-1,13.5-2.7l6.7,6.7l10.6-10.6l-5.2-5.2
				c3.3-4.3,5.2-9.4,5.2-14.9c0-14.8-13.8-26.8-30.7-26.8C239.1,143.7,225.3,155.7,225.3,170.5z M256,158.7
				c8.5,0,15.7,5.4,15.7,11.8c0,6.4-7.2,11.8-15.7,11.8s-15.7-5.4-15.7-11.8C240.3,164.1,247.5,158.7,256,158.7z"/>
			<rect x="378.9" y="275.2" class="st0" width="15" height="15"/>
			<rect x="378.9" y="250.2" class="st0" width="15" height="15"/>
			<polygon class="st0" points="378.9,314.1 366.6,326.3 377.2,336.9 393.9,320.3 393.9,300.2 378.9,300.2 			"/>
			<rect x="279" y="303.3" class="st0" width="15" height="40.5"/>
		</g>
	</g>
</g>
</svg>
